<?xml version="1.0" encoding="UTF-8"?>
<!DOCTYPE svg PUBLIC "-//W3C//DTD SVG 1.1//EN" "http://www.w3.org/Graphics/SVG/1.1/DTD/svg11.dtd">
<svg xmlns="http://www.w3.org/2000/svg" version="1.1" width="308px" height="246px" style="shape-rendering:geometricPrecision; text-rendering:geometricPrecision; image-rendering:optimizeQuality; fill-rule:evenodd; clip-rule:evenodd" xmlns:xlink="http://www.w3.org/1999/xlink">
<g><path style="opacity:0.922" fill="#bd9fd9" d="M 155.5,5.5 C 154.167,4.16667 152.833,4.16667 151.5,5.5C 152.488,0.444651 153.821,0.444651 155.5,5.5 Z"/></g>
<g><path style="opacity:1" fill="#b287de" d="M 156.5,7.5 C 158.95,9.62906 160.617,12.2957 161.5,15.5C 160,14.4125 158.667,13.0792 157.5,11.5C 156.571,10.3112 156.238,8.97782 156.5,7.5 Z"/></g>
<g><path style="opacity:1" fill="#ac71de" d="M 155.5,5.5 C 156.338,5.84171 156.672,6.50838 156.5,7.5C 154.795,6.46471 153.128,6.46471 151.5,7.5C 151.167,9.5 150.833,11.5 150.5,13.5C 149.117,10.9244 148.283,11.2577 148,14.5C 147.184,15.8228 146.017,16.4894 144.5,16.5C 146.087,12.3171 148.421,8.65047 151.5,5.5C 152.833,4.16667 154.167,4.16667 155.5,5.5 Z"/></g>
<g><path style="opacity:1" fill="#ac76e0" d="M 144.5,16.5 C 144.604,19.0895 143.937,21.4229 142.5,23.5C 142.482,25.3726 142.982,25.7059 144,24.5C 146.318,27.2324 147.818,26.7324 148.5,23C 147.813,21.8382 147.647,20.6716 148,19.5C 150.228,17.8866 152.728,17.22 155.5,17.5C 156.614,22.919 159.114,27.5857 163,31.5C 163.49,32.7932 163.657,34.1266 163.5,35.5C 159.775,30.4029 156.275,25.0696 153,19.5C 149.97,24.6737 146.804,29.6737 143.5,34.5C 142.742,31.5127 141.909,28.5127 141,25.5C 139.667,27.5 138.333,29.5 137,31.5C 136.329,32.2524 135.496,32.5858 134.5,32.5C 137.336,26.8222 140.669,21.4888 144.5,16.5 Z"/></g>
<g><path style="opacity:1" fill="#b78be2" d="M 168.5,26.5 C 170.326,28.1475 171.66,30.1475 172.5,32.5C 169.675,31.5221 168.342,29.5221 168.5,26.5 Z"/></g>
<g><path style="opacity:1" fill="#ad77e0" d="M 143.5,34.5 C 139.89,41.4337 135.89,48.1004 131.5,54.5C 131.365,49.6569 133.032,45.6569 136.5,42.5C 135.085,40.7202 135.252,39.0536 137,37.5C 137.414,37.9574 137.914,38.2907 138.5,38.5C 139.167,36.5 139.833,34.5 140.5,32.5C 141.265,33.6119 142.265,34.2786 143.5,34.5 Z"/></g>
<g><path style="opacity:0.988" fill="#c5a1e5" d="M 163.5,36.5 C 165.048,36.8212 165.715,37.8212 165.5,39.5C 164.599,38.7095 163.932,37.7095 163.5,36.5 Z"/></g>
<g><path style="opacity:1" fill="#b081dc" d="M 134.5,32.5 C 133.802,37.3336 131.469,41.0003 127.5,43.5C 129.087,39.3171 131.421,35.6505 134.5,32.5 Z"/></g>
<g><path style="opacity:1" fill="#c8a3e4" d="M 171.5,49.5 C 173.048,49.8212 173.715,50.8212 173.5,52.5C 172.599,51.7095 171.932,50.7095 171.5,49.5 Z"/></g>
<g><path style="opacity:1" fill="#a25ee8" d="M 209.5,49.5 C 209.667,68.1696 209.5,86.8363 209,105.5C 208.439,106.022 207.772,106.355 207,106.5C 204.375,105.012 201.542,104.178 198.5,104C 197.353,101.915 198.02,100.415 200.5,99.5C 198.164,98.2877 195.997,98.621 194,100.5C 193.228,100.355 192.561,100.022 192,99.5C 192.131,92.7545 191.298,86.4212 189.5,80.5C 189.171,74.4632 189.504,68.4632 190.5,62.5C 192.111,61.6798 192.778,60.3464 192.5,58.5C 187.804,59.8797 185.804,57.8797 186.5,52.5C 186.5,51.5 186.5,50.5 186.5,49.5C 194.167,49.5 201.833,49.5 209.5,49.5 Z"/></g>
<g><path style="opacity:1" fill="#a873df" d="M 165.5,39.5 C 166.756,39.9038 167.923,40.5705 169,41.5C 169.772,41.3552 170.439,41.0219 171,40.5C 170.2,42.9697 170.7,45.303 172.5,47.5C 175.167,46.1667 175.833,46.8333 174.5,49.5C 175.793,53.128 177.626,56.4613 180,59.5C 180.49,60.7932 180.657,62.1266 180.5,63.5C 177.931,60.039 175.597,56.3723 173.5,52.5C 173.715,50.8212 173.048,49.8212 171.5,49.5C 169.5,46.1667 167.5,42.8333 165.5,39.5 Z"/></g>
<g><path style="opacity:1" fill="#aa72e0" d="M 127.5,43.5 C 126.833,46.5 126.167,49.5 125.5,52.5C 124.5,52.5 123.5,52.5 122.5,52.5C 122.178,54.7224 122.845,56.5557 124.5,58C 122.77,59.8524 121.604,59.6857 121,57.5C 120.184,58.8228 119.017,59.4894 117.5,59.5C 120.336,53.8222 123.669,48.4888 127.5,43.5 Z"/></g>
<g><path style="opacity:1" fill="#b183dd" d="M 175.5,37.5 C 178.891,41.9277 182.058,46.5944 185,51.5C 185.49,50.2068 185.657,48.8734 185.5,47.5C 197.747,47.1782 209.914,47.5115 222,48.5C 222.333,69.5 222.667,90.5 223,111.5C 223.791,112.745 224.291,114.078 224.5,115.5C 223.265,115.279 222.265,114.612 221.5,113.5C 220.5,92.1771 220.167,70.8437 220.5,49.5C 216.833,49.5 213.167,49.5 209.5,49.5C 201.833,49.5 194.167,49.5 186.5,49.5C 186.5,50.5 186.5,51.5 186.5,52.5C 184.019,52.6766 182.186,51.6766 181,49.5C 179.956,46.4348 178.29,43.7681 176,41.5C 175.51,40.2068 175.343,38.8734 175.5,37.5 Z"/></g>
<g><path style="opacity:1" fill="#ab76e1" d="M 117.5,59.5 C 115.775,63.6504 114.109,67.9837 112.5,72.5C 109.853,74.2952 107.519,76.2952 105.5,78.5C 108.753,71.6521 112.753,65.3187 117.5,59.5 Z"/></g>
<g><path style="opacity:1" fill="#b281e0" d="M 131.5,54.5 C 126.529,63.4535 121.195,72.1202 115.5,80.5C 115.167,80.5 114.833,80.5 114.5,80.5C 115.366,77.8334 116.366,75.1668 117.5,72.5C 119.793,70.6082 121.626,68.2749 123,65.5C 123.494,63.8659 123.66,62.1992 123.5,60.5C 124.5,60.5 125.5,60.5 126.5,60.5C 125.721,57.9253 125.887,55.592 127,53.5C 127.308,54.3081 127.808,54.9747 128.5,55.5C 129.417,54.8728 130.417,54.5394 131.5,54.5 Z"/></g>
<g><path style="opacity:1" fill="#a261e5" d="M 156.5,7.5 C 156.238,8.97782 156.571,10.3112 157.5,11.5C 158.667,13.0792 160,14.4125 161.5,15.5C 164.579,18.6505 166.913,22.3171 168.5,26.5C 168.342,29.5221 169.675,31.5221 172.5,32.5C 173.89,33.8993 174.89,35.5659 175.5,37.5C 175.343,38.8734 175.51,40.2068 176,41.5C 178.29,43.7681 179.956,46.4348 181,49.5C 182.186,51.6766 184.019,52.6766 186.5,52.5C 185.804,57.8797 187.804,59.8797 192.5,58.5C 192.778,60.3464 192.111,61.6798 190.5,62.5C 189.504,68.4632 189.171,74.4632 189.5,80.5C 189.5,101.5 189.5,122.5 189.5,143.5C 191.827,143.247 193.827,143.914 195.5,145.5C 193.741,146.754 192.241,146.421 191,144.5C 189.833,145.667 188.667,146.833 187.5,148C 188.731,149.405 190.064,150.571 191.5,151.5C 190.167,151.5 188.833,151.5 187.5,151.5C 186.85,123.869 186.183,96.2027 185.5,68.5C 183.783,67.3315 183.116,65.6648 183.5,63.5C 182.5,63.5 181.5,63.5 180.5,63.5C 180.657,62.1266 180.49,60.7932 180,59.5C 177.626,56.4613 175.793,53.128 174.5,49.5C 175.833,46.8333 175.167,46.1667 172.5,47.5C 170.7,45.303 170.2,42.9697 171,40.5C 170.439,41.0219 169.772,41.3552 169,41.5C 167.923,40.5705 166.756,39.9038 165.5,39.5C 165.715,37.8212 165.048,36.8212 163.5,36.5C 163.5,36.1667 163.5,35.8333 163.5,35.5C 163.657,34.1266 163.49,32.7932 163,31.5C 159.114,27.5857 156.614,22.919 155.5,17.5C 152.728,17.22 150.228,17.8866 148,19.5C 147.647,20.6716 147.813,21.8382 148.5,23C 147.818,26.7324 146.318,27.2324 144,24.5C 142.982,25.7059 142.482,25.3726 142.5,23.5C 143.937,21.4229 144.604,19.0895 144.5,16.5C 146.017,16.4894 147.184,15.8228 148,14.5C 148.283,11.2577 149.117,10.9244 150.5,13.5C 150.833,11.5 151.167,9.5 151.5,7.5C 153.128,6.46471 154.795,6.46471 156.5,7.5 Z"/></g>
<g><path style="opacity:0.896" fill="#a976d8" d="M 180.5,63.5 C 181.5,63.5 182.5,63.5 183.5,63.5C 183.116,65.6648 183.783,67.3315 185.5,68.5C 186.183,96.2027 186.85,123.869 187.5,151.5C 185.673,125.185 184.84,98.5188 185,71.5C 183.223,68.9406 181.723,66.2739 180.5,63.5 Z"/></g>
<g><path style="opacity:1" fill="#a25fe7" d="M 143.5,34.5 C 142.265,34.2786 141.265,33.6119 140.5,32.5C 139.833,34.5 139.167,36.5 138.5,38.5C 137.914,38.2907 137.414,37.9574 137,37.5C 135.252,39.0536 135.085,40.7202 136.5,42.5C 133.032,45.6569 131.365,49.6569 131.5,54.5C 130.417,54.5394 129.417,54.8728 128.5,55.5C 127.808,54.9747 127.308,54.3081 127,53.5C 125.887,55.592 125.721,57.9253 126.5,60.5C 125.5,60.5 124.5,60.5 123.5,60.5C 123.66,62.1992 123.494,63.8659 123,65.5C 121.626,68.2749 119.793,70.6082 117.5,72.5C 116.366,75.1668 115.366,77.8334 114.5,80.5C 113.833,91.5 113.167,102.5 112.5,113.5C 106.155,113.347 99.8217,113.014 93.5,112.5C 91.3799,109.531 88.3799,108.198 84.5,108.5C 83.656,106.241 81.9893,105.241 79.5,105.5C 79.5,98.1667 79.5,90.8333 79.5,83.5C 86.6485,82.9897 93.6485,83.6563 100.5,85.5C 104.11,84.5564 105.777,82.2231 105.5,78.5C 107.519,76.2952 109.853,74.2952 112.5,72.5C 114.109,67.9837 115.775,63.6504 117.5,59.5C 119.017,59.4894 120.184,58.8228 121,57.5C 121.604,59.6857 122.77,59.8524 124.5,58C 122.845,56.5557 122.178,54.7224 122.5,52.5C 123.5,52.5 124.5,52.5 125.5,52.5C 126.167,49.5 126.833,46.5 127.5,43.5C 131.469,41.0003 133.802,37.3336 134.5,32.5C 135.496,32.5858 136.329,32.2524 137,31.5C 138.333,29.5 139.667,27.5 141,25.5C 141.909,28.5127 142.742,31.5127 143.5,34.5 Z"/></g>
<g><path style="opacity:0.525" fill="#cda7f3" d="M 78.5,82.5 C 78.1746,90.3516 78.508,98.0182 79.5,105.5C 81.9893,105.241 83.656,106.241 84.5,108.5C 82.9064,108.08 81.4064,107.414 80,106.5C 79.5,106.667 79,106.833 78.5,107C 79.4158,107.278 80.0825,107.778 80.5,108.5C 78.1576,111.771 77.8243,115.438 79.5,119.5C 78.1704,113.705 77.5038,107.538 77.5,101C 77.5004,94.6574 77.8338,88.4907 78.5,82.5 Z"/></g>
<g><path style="opacity:0.721" fill="#bc97dd" d="M 114.5,80.5 C 114.833,80.5 115.167,80.5 115.5,80.5C 115.192,92.1369 114.192,103.47 112.5,114.5C 112.5,114.167 112.5,113.833 112.5,113.5C 113.167,102.5 113.833,91.5 114.5,80.5 Z"/></g>
<g><path style="opacity:1" fill="#9f68d6" d="M 105.5,78.5 C 105.777,82.2231 104.11,84.5564 100.5,85.5C 93.6485,83.6563 86.6485,82.9897 79.5,83.5C 79.5,90.8333 79.5,98.1667 79.5,105.5C 78.508,98.0182 78.1746,90.3516 78.5,82.5C 86.5069,82.6664 94.5069,82.4997 102.5,82C 103.163,80.4815 104.163,79.3149 105.5,78.5 Z"/></g>
<g><path style="opacity:1" fill="#af7ede" d="M 84.5,108.5 C 88.3799,108.198 91.3799,109.531 93.5,112.5C 90.0884,111.925 87.0884,110.592 84.5,108.5 Z"/></g>
<g><path style="opacity:1" fill="#ba8de0" d="M 83.5,110.5 C 87.5763,112.186 91.5763,113.853 95.5,115.5C 91.7783,114.983 88.1117,114.15 84.5,113C 83.7476,112.329 83.4142,111.496 83.5,110.5 Z"/></g>
<g><path style="opacity:0.967" fill="#ad7fdc" d="M 93.5,112.5 C 99.8217,113.014 106.155,113.347 112.5,113.5C 112.5,113.833 112.5,114.167 112.5,114.5C 105.944,115.388 99.6105,114.721 93.5,112.5 Z"/></g>
<g><path style="opacity:1" fill="#a877d8" d="M 80.5,108.5 C 81.7095,108.932 82.7095,109.599 83.5,110.5C 82.1667,110.5 80.8333,110.5 79.5,110.5C 78.6287,117.306 81.6287,121.306 88.5,122.5C 88.8627,123.183 89.1961,123.85 89.5,124.5C 85.5686,123.868 82.2353,122.201 79.5,119.5C 77.8243,115.438 78.1576,111.771 80.5,108.5 Z"/></g>
<g><path style="opacity:1" fill="#c49ee0" d="M 79.5,126.5 C 77.901,126.232 76.5676,126.566 75.5,127.5C 74.8333,128.833 73.8333,129.833 72.5,130.5C 73.7226,127.726 75.2226,125.059 77,122.5C 77.6622,123.984 78.4955,125.317 79.5,126.5 Z"/></g>
<g><path style="opacity:1" fill="#a470d8" d="M 89.5,124.5 C 97.806,125.221 105.806,126.888 113.5,129.5C 112.432,130.434 111.099,130.768 109.5,130.5C 106.572,130.435 103.905,129.768 101.5,128.5C 99.4855,127.076 97.1522,126.41 94.5,126.5C 92.4471,126.598 90.7804,125.931 89.5,124.5 Z"/></g>
<g><path style="opacity:1" fill="#a463e5" d="M 83.5,110.5 C 83.4142,111.496 83.7476,112.329 84.5,113C 88.1117,114.15 91.7783,114.983 95.5,115.5C 101.464,116.307 107.464,116.64 113.5,116.5C 113.5,120.833 113.5,125.167 113.5,129.5C 105.806,126.888 97.806,125.221 89.5,124.5C 89.1961,123.85 88.8627,123.183 88.5,122.5C 81.6287,121.306 78.6287,117.306 79.5,110.5C 80.8333,110.5 82.1667,110.5 83.5,110.5 Z"/></g>
<g><path style="opacity:0.714" fill="#bd9bde" d="M 109.5,130.5 C 111.099,130.768 112.432,130.434 113.5,129.5C 113.5,125.167 113.5,120.833 113.5,116.5C 114.5,120.732 114.834,125.732 114.5,131.5C 112.585,131.784 110.919,131.451 109.5,130.5 Z"/></g>
<g><path style="opacity:0.996" fill="#c39fe3" d="M 94.5,126.5 C 97.1522,126.41 99.4855,127.076 101.5,128.5C 98.8478,128.59 96.5145,127.924 94.5,126.5 Z"/></g>
<g><path style="opacity:1" fill="#aa79dd" d="M 75.5,127.5 C 76.5676,126.566 77.901,126.232 79.5,126.5C 82.6865,127.597 85.6865,128.93 88.5,130.5C 83.8681,130.591 79.5347,129.591 75.5,127.5 Z"/></g>
<g><path style="opacity:1" fill="#a35fe7" d="M 209.5,49.5 C 213.167,49.5 216.833,49.5 220.5,49.5C 220.167,70.8437 220.5,92.1771 221.5,113.5C 222.265,114.612 223.265,115.279 224.5,115.5C 227.579,118.65 229.913,122.317 231.5,126.5C 231.427,128.027 232.094,129.027 233.5,129.5C 233.536,133.2 235.203,135.867 238.5,137.5C 238.427,139.027 239.094,140.027 240.5,140.5C 240.833,143.167 241.167,145.833 241.5,148.5C 244.999,148.259 245.332,149.092 242.5,151C 243.872,151.402 245.205,151.902 246.5,152.5C 249.864,158.339 253.364,164.006 257,169.5C 258.044,171.715 258.71,174.048 259,176.5C 259.667,175.167 260.333,175.167 261,176.5C 260.906,179.501 262.239,181.501 265,182.5C 267.112,185.727 268.945,189.06 270.5,192.5C 270.421,193.93 270.754,195.264 271.5,196.5C 273.709,197.063 275.209,198.396 276,200.5C 276.175,203.157 276.008,205.824 275.5,208.5C 277.989,208.298 280.323,208.798 282.5,210C 281.478,212.316 279.978,212.816 278,211.5C 277,212.167 276,212.833 275,213.5C 274.764,211.881 273.931,210.881 272.5,210.5C 271.922,207.63 270.255,205.963 267.5,205.5C 267.5,205.167 267.5,204.833 267.5,204.5C 266.5,201.167 265.5,197.833 264.5,194.5C 263.325,194.719 262.325,194.386 261.5,193.5C 260.596,190.602 259.262,187.936 257.5,185.5C 256.583,184.873 255.583,184.539 254.5,184.5C 254.5,184.167 254.5,183.833 254.5,183.5C 254.13,180.733 252.796,178.733 250.5,177.5C 250.83,173.512 249.163,170.845 245.5,169.5C 245.434,166.336 244.434,163.502 242.5,161C 243.953,159.287 243.786,157.787 242,156.5C 241.193,160.449 240.693,160.449 240.5,156.5C 239.5,156.5 238.5,156.5 237.5,156.5C 237.715,154.821 237.048,153.821 235.5,153.5C 235.5,153.167 235.5,152.833 235.5,152.5C 235.657,151.127 235.49,149.793 235,148.5C 233.436,146.737 232.269,144.737 231.5,142.5C 232.534,139.943 231.534,138.609 228.5,138.5C 228.993,136.194 229.326,133.861 229.5,131.5C 227.833,131.5 226.167,131.5 224.5,131.5C 223.754,127.69 222.754,127.69 221.5,131.5C 221.5,131.833 221.5,132.167 221.5,132.5C 220.669,143.993 220.169,155.659 220,167.5C 217.009,166.024 214.176,164.19 211.5,162C 209.26,161.023 206.927,160.523 204.5,160.5C 201.008,159.59 198.008,157.924 195.5,155.5C 195.5,154.5 195.5,153.5 195.5,152.5C 193.901,152.768 192.568,152.434 191.5,151.5C 190.064,150.571 188.731,149.405 187.5,148C 188.667,146.833 189.833,145.667 191,144.5C 192.241,146.421 193.741,146.754 195.5,145.5C 193.827,143.914 191.827,143.247 189.5,143.5C 189.5,122.5 189.5,101.5 189.5,80.5C 191.298,86.4212 192.131,92.7545 192,99.5C 192.561,100.022 193.228,100.355 194,100.5C 195.997,98.621 198.164,98.2877 200.5,99.5C 198.02,100.415 197.353,101.915 198.5,104C 201.542,104.178 204.375,105.012 207,106.5C 207.772,106.355 208.439,106.022 209,105.5C 209.5,86.8363 209.667,68.1696 209.5,49.5 Z M 213.5,117.5 C 216.26,118.437 218.094,120.103 219,122.5C 216.672,121.336 214.838,119.67 213.5,117.5 Z M 208.5,113.5 C 210.749,114.08 212.415,115.413 213.5,117.5C 211.938,117.267 210.605,116.6 209.5,115.5C 209.167,114.833 208.833,114.167 208.5,113.5 Z M 204.5,110.5 C 205.167,110.5 205.833,110.5 206.5,110.5C 207.167,111.5 207.833,112.5 208.5,113.5C 206.596,113.262 205.262,112.262 204.5,110.5 Z M 200.5,107.5 C 202.404,107.738 203.738,108.738 204.5,110.5C 202.596,110.262 201.262,109.262 200.5,107.5 Z"/></g>
<g><path style="opacity:1" fill="#a971e0" d="M 209.5,115.5 C 210.605,116.6 211.938,117.267 213.5,117.5C 212.415,115.413 210.749,114.08 208.5,113.5C 207.833,112.5 207.167,111.5 206.5,110.5C 207.496,110.414 208.329,110.748 209,111.5C 209.202,109.744 209.702,108.078 210.5,106.5C 211.287,107.242 211.953,108.075 212.5,109C 211.446,110.388 211.28,111.888 212,113.5C 215.111,115.487 218.278,117.153 221.5,118.5C 221.5,120.5 221.5,122.5 221.5,124.5C 216.592,125.374 212.426,127.707 209,131.5C 209.099,128.667 210.599,127.001 213.5,126.5C 213.519,124.94 213.852,123.44 214.5,122C 213.387,120.606 212.053,119.439 210.5,118.5C 209.873,117.583 209.539,116.583 209.5,115.5 Z M 213.5,117.5 C 214.838,119.67 216.672,121.336 219,122.5C 218.094,120.103 216.26,118.437 213.5,117.5 Z"/></g>
<g><path style="opacity:1" fill="#b380df" d="M 198.5,107.5 C 199.167,107.5 199.833,107.5 200.5,107.5C 201.262,109.262 202.596,110.262 204.5,110.5C 205.262,112.262 206.596,113.262 208.5,113.5C 208.833,114.167 209.167,114.833 209.5,115.5C 205.51,114.262 201.843,112.595 198.5,110.5C 198.5,109.5 198.5,108.5 198.5,107.5 Z"/></g>
<g><path style="opacity:1" fill="#bc8fe6" d="M 206.5,110.5 C 205.833,110.5 205.167,110.5 204.5,110.5C 203.738,108.738 202.404,107.738 200.5,107.5C 199.833,106.167 199.167,106.167 198.5,107.5C 197.711,107.217 197.044,106.717 196.5,106C 201.149,104.772 204.483,106.272 206.5,110.5 Z"/></g>
<g><path style="opacity:0.659" fill="#c9a5e8" d="M 231.5,126.5 C 232.906,126.973 233.573,127.973 233.5,129.5C 232.094,129.027 231.427,128.027 231.5,126.5 Z"/></g>
<g><path style="opacity:1" fill="#a76ee0" d="M 235.5,152.5 C 232.015,148.21 229.015,143.543 226.5,138.5C 226.759,136.011 225.759,134.344 223.5,133.5C 223.167,132.5 222.5,131.833 221.5,131.5C 222.754,127.69 223.754,127.69 224.5,131.5C 226.167,131.5 227.833,131.5 229.5,131.5C 229.326,133.861 228.993,136.194 228.5,138.5C 231.534,138.609 232.534,139.943 231.5,142.5C 232.269,144.737 233.436,146.737 235,148.5C 235.49,149.793 235.657,151.127 235.5,152.5 Z"/></g>
<g><path style="opacity:1" fill="#b488dd" d="M 233.5,129.5 C 235.664,131.822 237.331,134.489 238.5,137.5C 235.203,135.867 233.536,133.2 233.5,129.5 Z"/></g>
<g><path style="opacity:1" fill="#b181da" d="M 88.5,130.5 C 94.6589,132.331 100.659,134.331 106.5,136.5C 102.491,136.142 98.4908,135.642 94.5,135C 91.905,134.111 89.905,132.611 88.5,130.5 Z"/></g>
<g><path style="opacity:0.984" fill="#c095e5" d="M 223.5,133.5 C 225.759,134.344 226.759,136.011 226.5,138.5C 225.11,137.101 224.11,135.434 223.5,133.5 Z"/></g>
<g><path style="opacity:1" fill="#a260e5" d="M 75.5,127.5 C 79.5347,129.591 83.8681,130.591 88.5,130.5C 89.905,132.611 91.905,134.111 94.5,135C 98.4908,135.642 102.491,136.142 106.5,136.5C 106.833,136.5 107.167,136.5 107.5,136.5C 108.99,138.28 110.99,138.946 113.5,138.5C 113.5,140.833 113.5,143.167 113.5,145.5C 108.859,144.873 104.193,144.54 99.5,144.5C 95.5752,144.57 91.9085,143.903 88.5,142.5C 88.5858,141.504 88.2524,140.671 87.5,140C 85.6667,139.833 83.8333,139.667 82,139.5C 79.6977,139.6 77.6977,140.267 76,141.5C 75.6667,141.167 75.3333,140.833 75,140.5C 74.4618,143.345 73.4618,146.012 72,148.5C 71,147.5 70,146.5 69,145.5C 67.2164,148.219 67.0497,151.052 68.5,154C 67.3818,156.059 66.7151,158.226 66.5,160.5C 64.8762,160.64 63.7096,159.973 63,158.5C 62.6667,160.5 62.3333,162.5 62,164.5C 60.6054,162.86 59.1054,161.36 57.5,160C 58.2266,158.601 58.7266,157.101 59,155.5C 59.3333,155.833 59.6667,156.167 60,156.5C 60.4935,154.866 60.6602,153.199 60.5,151.5C 62.4468,147.9 64.9468,144.567 68,141.5C 68.5046,139.482 69.0046,137.482 69.5,135.5C 70.1103,133.566 71.1103,131.899 72.5,130.5C 73.8333,129.833 74.8333,128.833 75.5,127.5 Z"/></g>
<g><path style="opacity:0.299" fill="#e5cbfc" d="M 221.5,131.5 C 222.5,131.833 223.167,132.5 223.5,133.5C 222.833,149.5 222.167,165.5 221.5,181.5C 221.5,165.167 221.5,148.833 221.5,132.5C 221.5,132.167 221.5,131.833 221.5,131.5 Z"/></g>
<g><path style="opacity:0.573" fill="#d2adf1" d="M 238.5,137.5 C 239.906,137.973 240.573,138.973 240.5,140.5C 239.094,140.027 238.427,139.027 238.5,137.5 Z"/></g>
<g><path style="opacity:1" fill="#b185e2" d="M 69.5,135.5 C 69.0046,137.482 68.5046,139.482 68,141.5C 64.9468,144.567 62.4468,147.9 60.5,151.5C 60.1667,151.5 59.8333,151.5 59.5,151.5C 62.3359,145.822 65.6692,140.489 69.5,135.5 Z"/></g>
<g><path style="opacity:0.918" fill="#ba94df" d="M 89.5,145.5 C 85.5089,144.872 84.1755,146.205 85.5,149.5C 84.8333,149.5 84.1667,149.5 83.5,149.5C 83.5,148.833 83.1667,148.5 82.5,148.5C 82.5,147.833 82.1667,147.5 81.5,147.5C 81.2969,145.956 80.6302,144.622 79.5,143.5C 79.8333,143.167 80.1667,142.833 80.5,142.5C 83.6619,143.365 86.6619,144.365 89.5,145.5 Z"/></g>
<g><path style="opacity:1" fill="#b98ddd" d="M 107.5,136.5 C 109.861,136.674 112.194,137.007 114.5,137.5C 114.82,140.898 114.487,144.232 113.5,147.5C 108.675,146.676 104.008,145.676 99.5,144.5C 104.193,144.54 108.859,144.873 113.5,145.5C 113.5,143.167 113.5,140.833 113.5,138.5C 110.99,138.946 108.99,138.28 107.5,136.5 Z"/></g>
<g><path style="opacity:1" fill="#a470d6" d="M 221.5,132.5 C 221.5,148.833 221.5,165.167 221.5,181.5C 221.5,182.5 221.5,183.5 221.5,184.5C 221.167,184.5 220.833,184.5 220.5,184.5C 220.94,180.821 220.273,177.488 218.5,174.5C 219.622,172.712 219.789,170.712 219,168.5C 213.734,166.454 208.901,163.787 204.5,160.5C 206.927,160.523 209.26,161.023 211.5,162C 214.176,164.19 217.009,166.024 220,167.5C 220.169,155.659 220.669,143.993 221.5,132.5 Z"/></g>
<g><path style="opacity:1" fill="#af7ce0" d="M 88.5,142.5 C 84.8026,141.992 81.1359,141.326 77.5,140.5C 74.8646,147.774 71.1979,154.441 66.5,160.5C 66.7151,158.226 67.3818,156.059 68.5,154C 67.0497,151.052 67.2164,148.219 69,145.5C 70,146.5 71,147.5 72,148.5C 73.4618,146.012 74.4618,143.345 75,140.5C 75.3333,140.833 75.6667,141.167 76,141.5C 77.6977,140.267 79.6977,139.6 82,139.5C 83.8333,139.667 85.6667,139.833 87.5,140C 88.2524,140.671 88.5858,141.504 88.5,142.5 Z"/></g>
<g><path style="opacity:1" fill="#b587e4" d="M 89.5,145.5 C 93.3875,145.646 97.0542,146.313 100.5,147.5C 98.9397,147.519 97.4397,147.852 96,148.5C 93.2696,148.294 91.1029,147.294 89.5,145.5 Z"/></g>
<g><path style="opacity:0.965" fill="#c097e4" d="M 85.5,149.5 C 87.7488,150.08 89.4154,151.413 90.5,153.5C 89.8333,153.5 89.1667,153.5 88.5,153.5C 87.5,152.167 86.5,150.833 85.5,149.5 Z"/></g>
<g><path style="opacity:1" fill="#ad7bdf" d="M 240.5,140.5 C 247.664,150.822 254.331,161.489 260.5,172.5C 260.427,174.027 261.094,175.027 262.5,175.5C 267.247,181.319 271.247,187.652 274.5,194.5C 273.395,193.4 272.062,192.733 270.5,192.5C 268.945,189.06 267.112,185.727 265,182.5C 262.239,181.501 260.906,179.501 261,176.5C 260.333,175.167 259.667,175.167 259,176.5C 258.71,174.048 258.044,171.715 257,169.5C 253.364,164.006 249.864,158.339 246.5,152.5C 245.205,151.902 243.872,151.402 242.5,151C 245.332,149.092 244.999,148.259 241.5,148.5C 241.167,145.833 240.833,143.167 240.5,140.5 Z"/></g>
<g><path style="opacity:0.702" fill="#ba96dd" d="M 107.5,148.5 C 109.792,148.244 111.959,148.577 114,149.5C 114.499,153.821 114.666,158.154 114.5,162.5C 112.901,162.768 111.568,162.434 110.5,161.5C 111.5,161.5 112.5,161.5 113.5,161.5C 113.5,157.833 113.5,154.167 113.5,150.5C 111.102,150.741 109.102,150.074 107.5,148.5 Z"/></g>
<g><path style="opacity:1" fill="#aa7cdc" d="M 187.5,151.5 C 188.833,151.5 190.167,151.5 191.5,151.5C 192.568,152.434 193.901,152.768 195.5,152.5C 195.5,153.5 195.5,154.5 195.5,155.5C 192.515,154.674 189.849,153.341 187.5,151.5 Z"/></g>
<g><path style="opacity:0.536" fill="#cca7f3" d="M 81.5,147.5 C 82.1667,147.5 82.5,147.833 82.5,148.5C 83.1667,148.5 83.5,148.833 83.5,149.5C 83.5,149.833 83.5,150.167 83.5,150.5C 82.0695,150.579 80.7362,150.246 79.5,149.5C 78.2007,157.558 78.2007,165.558 79.5,173.5C 78.1729,169.049 77.5063,164.216 77.5,159C 77.6667,154.167 77.8333,149.333 78,144.5C 79.0391,145.71 80.2058,146.71 81.5,147.5 Z"/></g>
<g><path style="opacity:0.996" fill="#c69fe4" d="M 235.5,153.5 C 237.048,153.821 237.715,154.821 237.5,156.5C 236.599,155.71 235.932,154.71 235.5,153.5 Z"/></g>
<g><path style="opacity:1" fill="#a464e3" d="M 89.5,145.5 C 91.1029,147.294 93.2696,148.294 96,148.5C 97.4397,147.852 98.9397,147.519 100.5,147.5C 102.95,147.298 105.283,147.631 107.5,148.5C 109.102,150.074 111.102,150.741 113.5,150.5C 113.5,154.167 113.5,157.833 113.5,161.5C 112.5,161.5 111.5,161.5 110.5,161.5C 103.222,160.189 96.5556,157.522 90.5,153.5C 89.4154,151.413 87.7488,150.08 85.5,149.5C 84.1755,146.205 85.5089,144.872 89.5,145.5 Z"/></g>
<g><path style="opacity:1" fill="#ad78e2" d="M 237.5,156.5 C 238.5,156.5 239.5,156.5 240.5,156.5C 240.693,160.449 241.193,160.449 242,156.5C 243.786,157.787 243.953,159.287 242.5,161C 244.434,163.502 245.434,166.336 245.5,169.5C 242.597,165.37 239.93,161.037 237.5,156.5 Z"/></g>
<g><path style="opacity:1" fill="#a971e1" d="M 59.5,151.5 C 59.8333,151.5 60.1667,151.5 60.5,151.5C 60.6602,153.199 60.4935,154.866 60,156.5C 59.6667,156.167 59.3333,155.833 59,155.5C 58.7266,157.101 58.2266,158.601 57.5,160C 59.1054,161.36 60.6054,162.86 62,164.5C 62.3333,162.5 62.6667,160.5 63,158.5C 63.7096,159.973 64.8762,160.64 66.5,160.5C 64.5538,164.439 62.2205,168.106 59.5,171.5C 59.4208,170.07 59.7542,168.736 60.5,167.5C 58.585,165.929 57.585,163.929 57.5,161.5C 54.1245,162.626 51.9579,164.959 51,168.5C 50.1841,169.823 49.0174,170.489 47.5,170.5C 47.3284,169.508 47.6618,168.842 48.5,168.5C 49.9063,168.027 50.573,167.027 50.5,165.5C 53.0043,160.485 56.0043,155.819 59.5,151.5 Z"/></g>
<g><path style="opacity:1" fill="#b281dd" d="M 95.5,158.5 C 98.9889,159.658 102.322,160.991 105.5,162.5C 102.193,161.949 98.8599,161.616 95.5,161.5C 95.5,160.5 95.5,159.5 95.5,158.5 Z"/></g>
<g><path style="opacity:1" fill="#ba90de" d="M 188.5,158.5 C 192.118,160.137 195.451,162.137 198.5,164.5C 194.109,164.158 190.776,162.158 188.5,158.5 Z"/></g>
<g><path style="opacity:0.911" fill="#af82d9" d="M 187.5,158.5 C 186.515,162.634 186.182,166.968 186.5,171.5C 189.005,171.98 191.338,172.98 193.5,174.5C 194.298,174.957 194.631,175.624 194.5,176.5C 191.492,175.58 188.659,174.246 186,172.5C 185.171,167.467 185.338,162.467 186.5,157.5C 187.107,157.624 187.44,157.957 187.5,158.5 Z"/></g>
<g><path style="opacity:0.992" fill="#cba4e3" d="M 199.5,164.5 C 200.71,164.932 201.71,165.599 202.5,166.5C 200.821,166.715 199.821,166.048 199.5,164.5 Z"/></g>
<g><path style="opacity:0.518" fill="#d4baee" d="M 50.5,165.5 C 50.573,167.027 49.9063,168.027 48.5,168.5C 48.427,166.973 49.0937,165.973 50.5,165.5 Z"/></g>
<g><path style="opacity:1" fill="#a775d9" d="M 83.5,150.5 C 84.922,151.925 86.5887,152.925 88.5,153.5C 90.6572,155.412 92.9906,157.079 95.5,158.5C 94.1779,158.33 93.0113,158.663 92,159.5C 88.7616,157.771 85.9283,155.438 83.5,152.5C 82.2638,151.754 80.9305,151.421 79.5,151.5C 79.3337,158.175 79.5004,164.842 80,171.5C 82.2003,172.651 83.7003,174.318 84.5,176.5C 82.326,176.25 80.6594,175.25 79.5,173.5C 78.2007,165.558 78.2007,157.558 79.5,149.5C 80.7362,150.246 82.0695,150.579 83.5,150.5 Z"/></g>
<g><path style="opacity:1" fill="#b184db" d="M 206.5,168.5 C 209.696,169.929 212.696,171.595 215.5,173.5C 212.5,172.833 209.5,172.167 206.5,171.5C 206.5,170.5 206.5,169.5 206.5,168.5 Z"/></g>
<g><path style="opacity:1" fill="#b689e0" d="M 245.5,169.5 C 249.163,170.845 250.83,173.512 250.5,177.5C 248.347,175.206 246.68,172.54 245.5,169.5 Z"/></g>
<g><path style="opacity:1" fill="#bd93e4" d="M 59.5,172.5 C 58.9744,174.23 57.9744,175.564 56.5,176.5C 56.5,175.167 56.5,173.833 56.5,172.5C 57.5,172.5 58.5,172.5 59.5,172.5 Z"/></g>
<g><path style="opacity:0.741" fill="#b58ed9" d="M 106.5,162.5 C 108.937,162.756 111.271,163.423 113.5,164.5C 114.491,168.445 114.824,172.445 114.5,176.5C 113.518,173.038 113.185,169.371 113.5,165.5C 110.519,165.818 108.185,164.818 106.5,162.5 Z"/></g>
<g><path style="opacity:0.62" fill="#ceacef" d="M 260.5,172.5 C 261.906,172.973 262.573,173.973 262.5,175.5C 261.094,175.027 260.427,174.027 260.5,172.5 Z"/></g>
<g><path style="opacity:0.824" fill="#b897d9" d="M 84.5,176.5 C 86.0269,176.427 87.0269,177.094 87.5,178.5C 85.9731,178.573 84.9731,177.906 84.5,176.5 Z"/></g>
<g><path style="opacity:1" fill="#a362e6" d="M 187.5,158.5 C 187.833,158.5 188.167,158.5 188.5,158.5C 190.776,162.158 194.109,164.158 198.5,164.5C 198.833,164.5 199.167,164.5 199.5,164.5C 199.821,166.048 200.821,166.715 202.5,166.5C 204.062,166.733 205.395,167.4 206.5,168.5C 206.5,169.5 206.5,170.5 206.5,171.5C 209.5,172.167 212.5,172.833 215.5,173.5C 216.791,173.263 217.791,173.596 218.5,174.5C 220.273,177.488 220.94,180.821 220.5,184.5C 220.38,185.586 219.713,186.253 218.5,186.5C 216.547,185.844 214.547,185.511 212.5,185.5C 208.646,184.07 204.979,182.403 201.5,180.5C 201.027,179.094 200.027,178.427 198.5,178.5C 196.847,178.34 195.514,177.674 194.5,176.5C 194.631,175.624 194.298,174.957 193.5,174.5C 191.338,172.98 189.005,171.98 186.5,171.5C 186.182,166.968 186.515,162.634 187.5,158.5 Z"/></g>
<g><path style="opacity:1" fill="#be97e6" d="M 250.5,177.5 C 252.796,178.733 254.13,180.733 254.5,183.5C 252.684,181.882 251.351,179.882 250.5,177.5 Z"/></g>
<g><path style="opacity:1" fill="#b380e0" d="M 208.5,186.5 C 206.801,186.66 205.134,186.494 203.5,186C 200.77,184.34 197.937,182.84 195,181.5C 194.228,181.645 193.561,181.978 193,182.5C 191.016,178.972 188.516,178.639 185.5,181.5C 185.167,181.5 184.833,181.5 184.5,181.5C 184.39,178.941 185.056,176.608 186.5,174.5C 193.895,178.528 201.229,182.528 208.5,186.5 Z"/></g>
<g><path style="opacity:0.239" fill="#ebd0fb" d="M 80.5,177.5 C 78.6921,178.918 78.0254,180.918 78.5,183.5C 77.3659,181.034 77.1993,178.367 78,175.5C 78.9947,176.066 79.828,176.733 80.5,177.5 Z"/></g>
<g><path style="opacity:1" fill="#ab77de" d="M 87.5,178.5 C 89.258,178.877 90.9246,179.544 92.5,180.5C 93.1667,179.833 93.8333,179.167 94.5,178.5C 96.9207,183.013 99.5874,187.346 102.5,191.5C 97.1793,187.511 92.1793,183.178 87.5,178.5 Z"/></g>
<g><path style="opacity:0.475" fill="#d4b4f2" d="M 198.5,178.5 C 200.027,178.427 201.027,179.094 201.5,180.5C 199.973,180.573 198.973,179.906 198.5,178.5 Z"/></g>
<g><path style="opacity:1" fill="#a874de" d="M 47.5,170.5 C 47.6931,173.475 46.6931,175.975 44.5,178C 45.3366,179.011 45.67,180.178 45.5,181.5C 44.448,181.351 43.448,181.517 42.5,182C 41.3492,184.2 39.6825,185.7 37.5,186.5C 40.3359,180.822 43.6692,175.489 47.5,170.5 Z"/></g>
<g><path style="opacity:1" fill="#b282da" d="M 85.5,180.5 C 90.4863,184.155 95.153,188.155 99.5,192.5C 95.5998,190.68 91.9331,188.346 88.5,185.5C 86.7221,184.274 85.7221,182.607 85.5,180.5 Z"/></g>
<g><path style="opacity:0.988" fill="#c4a1e3" d="M 220.5,184.5 C 220.833,184.5 221.167,184.5 221.5,184.5C 221.324,187.727 220.657,190.727 219.5,193.5C 219.5,192.5 219.5,191.5 219.5,190.5C 219.586,189.504 219.252,188.671 218.5,188C 216.277,187.434 214.277,186.6 212.5,185.5C 214.547,185.511 216.547,185.844 218.5,186.5C 219.713,186.253 220.38,185.586 220.5,184.5 Z"/></g>
<g><path style="opacity:1" fill="#af80dc" d="M 254.5,184.5 C 255.583,184.539 256.583,184.873 257.5,185.5C 259.262,187.936 260.596,190.602 261.5,193.5C 262.325,194.386 263.325,194.719 264.5,194.5C 265.5,197.833 266.5,201.167 267.5,204.5C 262.682,198.211 258.349,191.544 254.5,184.5 Z"/></g>
<g><path style="opacity:1" fill="#b386dc" d="M 80.5,177.5 C 82.2303,178.026 83.5637,179.026 84.5,180.5C 83.8826,180.611 83.3826,180.944 83,181.5C 82.2904,180.027 81.1238,179.36 79.5,179.5C 79.5,182.167 79.5,184.833 79.5,187.5C 82.8573,187.216 85.1906,188.549 86.5,191.5C 81.4206,191.005 78.754,188.339 78.5,183.5C 78.0254,180.918 78.6921,178.918 80.5,177.5 Z"/></g>
<g><path style="opacity:0.973" fill="#c3a5e0" d="M 184.5,182.5 C 183.125,185.816 183.458,188.816 185.5,191.5C 184.833,191.5 184.167,191.5 183.5,191.5C 182.859,190.518 182.193,189.518 181.5,188.5C 182.519,186.396 183.519,184.396 184.5,182.5 Z"/></g>
<g><path style="opacity:1" fill="#a161e3" d="M 84.5,180.5 C 84.8333,180.5 85.1667,180.5 85.5,180.5C 85.7221,182.607 86.7221,184.274 88.5,185.5C 91.9331,188.346 95.5998,190.68 99.5,192.5C 99.5,193.5 99.5,194.5 99.5,195.5C 96.4359,195.072 93.4359,194.406 90.5,193.5C 88.847,193.34 87.5137,192.674 86.5,191.5C 85.1906,188.549 82.8573,187.216 79.5,187.5C 79.5,184.833 79.5,182.167 79.5,179.5C 81.1238,179.36 82.2904,180.027 83,181.5C 83.3826,180.944 83.8826,180.611 84.5,180.5 Z"/></g>
<g><path style="opacity:1" fill="#a25fe7" d="M 208.5,186.5 C 210.491,189.794 213.491,191.461 217.5,191.5C 217.5,193.167 217.5,194.833 217.5,196.5C 217.5,197.5 217.5,198.5 217.5,199.5C 217.5,199.833 217.5,200.167 217.5,200.5C 215.952,200.821 215.285,201.821 215.5,203.5C 213.194,203.007 210.861,202.674 208.5,202.5C 208.586,201.504 208.252,200.671 207.5,200C 200.982,196.653 194.315,193.653 187.5,191C 185.66,188.174 184.994,185.007 185.5,181.5C 188.516,178.639 191.016,178.972 193,182.5C 193.561,181.978 194.228,181.645 195,181.5C 197.937,182.84 200.77,184.34 203.5,186C 205.134,186.494 206.801,186.66 208.5,186.5 Z"/></g>
<g><path style="opacity:1" fill="#ad78db" d="M 208.5,186.5 C 212.279,187.558 215.946,188.891 219.5,190.5C 219.5,191.5 219.5,192.5 219.5,193.5C 219.5,194.167 219.5,194.833 219.5,195.5C 218.833,195.833 218.167,196.167 217.5,196.5C 217.5,194.833 217.5,193.167 217.5,191.5C 213.491,191.461 210.491,189.794 208.5,186.5 Z"/></g>
<g><path style="opacity:0.957" fill="#b991dd" d="M 90.5,196.5 C 81.4719,192.625 80.1386,194.958 86.5,203.5C 84.9826,203.489 83.8159,202.823 83,201.5C 80.9601,197.933 80.1268,194.266 80.5,190.5C 84.2288,192.023 87.5621,194.023 90.5,196.5 Z"/></g>
<g><path style="opacity:1" fill="#ae78e2" d="M 49.5,188.5 C 45.4031,195.704 41.0698,202.704 36.5,209.5C 36.1601,206.856 36.8267,204.523 38.5,202.5C 37.1091,200.064 37.6091,199.398 40,200.5C 40.8249,198.299 40.3249,196.466 38.5,195C 39,194.5 39.5,194 40,193.5C 41.1096,195.037 42.6096,195.703 44.5,195.5C 44.6567,194.127 44.49,192.793 44,191.5C 43.2825,192.451 42.4491,192.617 41.5,192C 44.0789,190.533 46.7456,189.366 49.5,188.5 Z"/></g>
<g><path style="opacity:0.992" fill="#aa75e2" d="M 102.5,191.5 C 108.389,191.671 111.389,194.671 111.5,200.5C 108.167,197.833 105.167,194.833 102.5,191.5 Z"/></g>
<g><path style="opacity:0.984" fill="#b793db" d="M 183.5,191.5 C 183.5,191.833 183.5,192.167 183.5,192.5C 181.315,192.704 179.315,193.37 177.5,194.5C 178.773,191.479 180.773,190.479 183.5,191.5 Z"/></g>
<g><path style="opacity:1" fill="#ad7ade" d="M 184.5,181.5 C 184.833,181.5 185.167,181.5 185.5,181.5C 184.994,185.007 185.66,188.174 187.5,191C 194.315,193.653 200.982,196.653 207.5,200C 208.252,200.671 208.586,201.504 208.5,202.5C 207.833,202.5 207.167,202.5 206.5,202.5C 204.574,200.707 202.241,199.707 199.5,199.5C 199.158,198.662 198.492,198.328 197.5,198.5C 197.158,197.662 196.492,197.328 195.5,197.5C 195.158,196.662 194.492,196.328 193.5,196.5C 193.158,195.662 192.492,195.328 191.5,195.5C 191.158,194.662 190.492,194.328 189.5,194.5C 189.158,193.662 188.492,193.328 187.5,193.5C 187.158,192.662 186.492,192.328 185.5,192.5C 185.5,192.167 185.5,191.833 185.5,191.5C 183.458,188.816 183.125,185.816 184.5,182.5C 184.5,182.167 184.5,181.833 184.5,181.5 Z"/></g>
<g><path style="opacity:0.982" fill="#a875db" d="M 99.5,192.5 C 103.833,196.5 108.167,200.5 112.5,204.5C 114.354,207.837 113.687,208.837 110.5,207.5C 106.293,205.565 102.627,202.898 99.5,199.5C 99.0269,198.094 98.0269,197.427 96.5,197.5C 94.1475,196.66 92.1475,195.326 90.5,193.5C 93.4359,194.406 96.4359,195.072 99.5,195.5C 99.5,194.5 99.5,193.5 99.5,192.5 Z"/></g>
<g><path style="opacity:0.667" fill="#d2baec" d="M 177.5,194.5 C 176.738,196.262 175.404,197.262 173.5,197.5C 174.262,195.738 175.596,194.738 177.5,194.5 Z"/></g>
<g><path style="opacity:1" fill="#a466e1" d="M 183.5,192.5 C 184.167,192.5 184.833,192.5 185.5,192.5C 185.842,193.338 186.508,193.672 187.5,193.5C 187.842,194.338 188.508,194.672 189.5,194.5C 189.842,195.338 190.508,195.672 191.5,195.5C 191.5,195.833 191.5,196.167 191.5,196.5C 191.5,197.5 191.5,198.5 191.5,199.5C 190.033,196.742 189.367,197.075 189.5,200.5C 186.644,199.172 183.644,198.172 180.5,197.5C 179.996,201.335 178.996,201.335 177.5,197.5C 174.307,198.228 172.307,200.061 171.5,203C 171.755,204.326 172.422,205.326 173.5,206C 170.839,205.592 168.173,204.759 165.5,203.5C 163.547,204.156 161.547,204.489 159.5,204.5C 160.5,203.833 161.5,203.167 162.5,202.5C 166.208,201.037 169.874,199.37 173.5,197.5C 175.404,197.262 176.738,196.262 177.5,194.5C 179.315,193.37 181.315,192.704 183.5,192.5 Z"/></g>
<g><path style="opacity:1" fill="#b88bdf" d="M 119.5,189.5 C 123.141,192.805 126.808,196.138 130.5,199.5C 129.25,199.577 128.417,200.244 128,201.5C 126.287,197.787 123.621,195.12 120,193.5C 119.51,192.207 119.343,190.873 119.5,189.5 Z"/></g>
<g><path style="opacity:0.573" fill="#d8bdea" d="M 219.5,195.5 C 219.34,197.153 218.674,198.486 217.5,199.5C 217.5,198.5 217.5,197.5 217.5,196.5C 218.167,196.167 218.833,195.833 219.5,195.5 Z"/></g>
<g><path style="opacity:0.682" fill="#cba7e4" d="M 96.5,197.5 C 98.0269,197.427 99.0269,198.094 99.5,199.5C 97.9731,199.573 96.9731,198.906 96.5,197.5 Z"/></g>
<g><path style="opacity:1" fill="#b382db" d="M 191.5,196.5 C 192.167,196.5 192.833,196.5 193.5,196.5C 193.842,197.338 194.508,197.672 195.5,197.5C 195.842,198.338 196.508,198.672 197.5,198.5C 197.842,199.338 198.508,199.672 199.5,199.5C 199.5,199.833 199.5,200.167 199.5,200.5C 196.833,200.167 194.167,199.833 191.5,199.5C 191.5,198.5 191.5,197.5 191.5,196.5 Z"/></g>
<g><path style="opacity:1" fill="#b183e1" d="M 37.5,186.5 C 37.0874,188.89 36.4207,191.223 35.5,193.5C 33.1141,195.731 31.2807,198.397 30,201.5C 28.8873,202.305 27.7206,202.972 26.5,203.5C 29.4223,197.314 33.089,191.648 37.5,186.5 Z"/></g>
<g><path style="opacity:1" fill="#a25fe7" d="M 191.5,199.5 C 194.167,199.833 196.833,200.167 199.5,200.5C 199.414,201.496 199.748,202.329 200.5,203C 204.488,203.991 207.821,205.991 210.5,209C 210.182,211.375 208.849,212.542 206.5,212.5C 206.5,213.5 206.5,214.5 206.5,215.5C 204.42,216.044 202.42,216.878 200.5,218C 200.957,218.414 201.291,218.914 201.5,219.5C 200.167,220.167 198.833,220.833 197.5,221.5C 197.709,222.086 198.043,222.586 198.5,223C 197.207,223.49 195.873,223.657 194.5,223.5C 194.5,224.5 194.5,225.5 194.5,226.5C 179.794,226.609 165.127,225.943 150.5,224.5C 150.5,223.833 150.167,223.5 149.5,223.5C 146.037,222.214 143.037,220.214 140.5,217.5C 138.901,215.691 136.901,214.358 134.5,213.5C 134.833,212.5 135.5,211.833 136.5,211.5C 139.549,214.716 143.215,216.883 147.5,218C 151.809,217.657 156.142,217.157 160.5,216.5C 160.5,215.167 160.5,213.833 160.5,212.5C 156.298,213.93 151.965,214.763 147.5,215C 145.114,214.716 144.448,213.716 145.5,212C 142.823,211.751 140.49,210.751 138.5,209C 139.167,208.667 139.833,208.333 140.5,208C 138.5,207.667 136.5,207.333 134.5,207C 135.883,205.539 135.549,204.706 133.5,204.5C 136.287,203.523 139.287,203.19 142.5,203.5C 147.975,204.489 153.642,204.822 159.5,204.5C 161.547,204.489 163.547,204.156 165.5,203.5C 168.173,204.759 170.839,205.592 173.5,206C 172.422,205.326 171.755,204.326 171.5,203C 172.307,200.061 174.307,198.228 177.5,197.5C 178.996,201.335 179.996,201.335 180.5,197.5C 183.644,198.172 186.644,199.172 189.5,200.5C 189.367,197.075 190.033,196.742 191.5,199.5 Z"/></g>
<g><path style="opacity:0.98" fill="#bd93e1" d="M 111.5,200.5 C 114.179,200.525 115.512,201.858 115.5,204.5C 113.833,203.5 112.5,202.167 111.5,200.5 Z"/></g>
<g><path style="opacity:0.624" fill="#ccacec" d="M 277.5,199.5 C 278.906,199.973 279.573,200.973 279.5,202.5C 278.094,202.027 277.427,201.027 277.5,199.5 Z"/></g>
<g><path style="opacity:1" fill="#b386e4" d="M 130.5,199.5 C 134.59,200.895 138.59,202.228 142.5,203.5C 139.287,203.19 136.287,203.523 133.5,204.5C 132.36,202.955 131.36,201.288 130.5,199.5 Z"/></g>
<g><path style="opacity:0.976" fill="#be99e0" d="M 217.5,200.5 C 217.33,203.204 215.997,204.871 213.5,205.5C 212.22,204.069 210.553,203.402 208.5,203.5C 208.5,203.167 208.5,202.833 208.5,202.5C 210.861,202.674 213.194,203.007 215.5,203.5C 215.285,201.821 215.952,200.821 217.5,200.5 Z"/></g>
<g><path style="opacity:0.969" fill="#b58add" d="M 86.5,204.5 C 86.5,204.167 86.5,203.833 86.5,203.5C 89.3202,203.087 91.3202,204.087 92.5,206.5C 91.8333,206.5 91.1667,206.5 90.5,206.5C 90.1583,205.662 89.4916,205.328 88.5,205.5C 88.1583,204.662 87.4916,204.328 86.5,204.5 Z"/></g>
<g><path style="opacity:0.984" fill="#b180de" d="M 94.5,198.5 C 97.4735,200.147 100.14,202.147 102.5,204.5C 97.9762,204.796 95.3095,202.796 94.5,198.5 Z"/></g>
<g><path style="opacity:1" fill="#bc99db" d="M 162.5,202.5 C 161.5,203.167 160.5,203.833 159.5,204.5C 153.642,204.822 147.975,204.489 142.5,203.5C 149.202,203.664 155.869,203.331 162.5,202.5 Z"/></g>
<g><path style="opacity:1" fill="#a360e6" d="M 59.5,171.5 C 59.5,171.833 59.5,172.167 59.5,172.5C 58.5,172.5 57.5,172.5 56.5,172.5C 56.5,173.833 56.5,175.167 56.5,176.5C 54.668,180.836 52.3346,184.836 49.5,188.5C 46.7456,189.366 44.0789,190.533 41.5,192C 42.4491,192.617 43.2825,192.451 44,191.5C 44.49,192.793 44.6567,194.127 44.5,195.5C 42.6096,195.703 41.1096,195.037 40,193.5C 39.5,194 39,194.5 38.5,195C 40.3249,196.466 40.8249,198.299 40,200.5C 37.6091,199.398 37.1091,200.064 38.5,202.5C 36.8267,204.523 36.1601,206.856 36.5,209.5C 34.8706,211.06 33.704,210.727 33,208.5C 32.7132,210.891 32.2132,213.224 31.5,215.5C 30.675,216.386 29.675,216.719 28.5,216.5C 28.5,218.5 28.5,220.5 28.5,222.5C 28.6716,223.492 28.3382,224.158 27.5,224.5C 23.3347,225.921 21.3347,228.921 21.5,233.5C 21.8333,234.5 22.1667,235.5 22.5,236.5C 29.4495,235.37 36.4495,235.203 43.5,236C 44.6721,236.419 45.6721,237.085 46.5,238C 52.8969,238.182 59.2303,238.848 65.5,240C 45.8362,240.5 26.1695,240.667 6.5,240.5C 6.5,238.833 6.5,237.167 6.5,235.5C 8.08747,231.317 10.4208,227.65 13.5,224.5C 15.4077,223.514 16.4077,221.848 16.5,219.5C 17.1103,217.566 18.1103,215.899 19.5,214.5C 24.0936,212.321 26.4269,208.654 26.5,203.5C 27.7206,202.972 28.8873,202.305 30,201.5C 31.2807,198.397 33.1141,195.731 35.5,193.5C 36.4207,191.223 37.0874,188.89 37.5,186.5C 39.6825,185.7 41.3492,184.2 42.5,182C 43.448,181.517 44.448,181.351 45.5,181.5C 45.67,180.178 45.3366,179.011 44.5,178C 46.6931,175.975 47.6931,173.475 47.5,170.5C 49.0174,170.489 50.1841,169.823 51,168.5C 51.9579,164.959 54.1245,162.626 57.5,161.5C 57.585,163.929 58.585,165.929 60.5,167.5C 59.7542,168.736 59.4208,170.07 59.5,171.5 Z"/></g>
<g><path style="opacity:0.992" fill="#be9be2" d="M 102.5,204.5 C 103.71,204.932 104.71,205.599 105.5,206.5C 103.821,206.715 102.821,206.048 102.5,204.5 Z"/></g>
<g><path style="opacity:0.98" fill="#c9a5e6" d="M 209.5,204.5 C 210.708,205.234 212.041,205.567 213.5,205.5C 214.954,207.263 214.62,208.597 212.5,209.5C 212.5,208.5 212.5,207.5 212.5,206.5C 210.821,206.715 209.821,206.048 209.5,204.5 Z"/></g>
<g><path style="opacity:0.871" fill="#ceb1e7" d="M 86.5,204.5 C 86.8417,205.338 87.5084,205.672 88.5,205.5C 88.8417,206.338 89.5084,206.672 90.5,206.5C 90.8333,207.167 91.1667,207.833 91.5,208.5C 90.4168,208.461 89.4168,208.127 88.5,207.5C 87.7025,207.957 87.3691,208.624 87.5,209.5C 86.3994,208.152 85.3994,206.652 84.5,205C 85.0944,204.536 85.7611,204.369 86.5,204.5 Z"/></g>
<g><path style="opacity:1" fill="#a360e6" d="M 95.5,158.5 C 95.5,159.5 95.5,160.5 95.5,161.5C 98.8599,161.616 102.193,161.949 105.5,162.5C 105.833,162.5 106.167,162.5 106.5,162.5C 108.185,164.818 110.519,165.818 113.5,165.5C 113.185,169.371 113.518,173.038 114.5,176.5C 115.851,180.883 117.517,185.216 119.5,189.5C 119.343,190.873 119.51,192.207 120,193.5C 123.621,195.12 126.287,197.787 128,201.5C 128.417,200.244 129.25,199.577 130.5,199.5C 131.36,201.288 132.36,202.955 133.5,204.5C 135.549,204.706 135.883,205.539 134.5,207C 136.5,207.333 138.5,207.667 140.5,208C 139.833,208.333 139.167,208.667 138.5,209C 140.49,210.751 142.823,211.751 145.5,212C 144.448,213.716 145.114,214.716 147.5,215C 151.965,214.763 156.298,213.93 160.5,212.5C 160.5,213.833 160.5,215.167 160.5,216.5C 156.142,217.157 151.809,217.657 147.5,218C 143.215,216.883 139.549,214.716 136.5,211.5C 135.5,211.833 134.833,212.5 134.5,213.5C 136.901,214.358 138.901,215.691 140.5,217.5C 137.482,217.296 134.482,216.963 131.5,216.5C 128.63,215.567 126.296,213.9 124.5,211.5C 123.738,209.738 122.404,208.738 120.5,208.5C 118.809,207.136 117.142,205.803 115.5,204.5C 115.512,201.858 114.179,200.525 111.5,200.5C 111.389,194.671 108.389,191.671 102.5,191.5C 99.5874,187.346 96.9207,183.013 94.5,178.5C 93.8333,179.167 93.1667,179.833 92.5,180.5C 90.9246,179.544 89.258,178.877 87.5,178.5C 87.0269,177.094 86.0269,176.427 84.5,176.5C 83.7003,174.318 82.2003,172.651 80,171.5C 79.5004,164.842 79.3337,158.175 79.5,151.5C 80.9305,151.421 82.2638,151.754 83.5,152.5C 85.9283,155.438 88.7616,157.771 92,159.5C 93.0113,158.663 94.1779,158.33 95.5,158.5 Z"/></g>
<g><path style="opacity:1" fill="#b785e3" d="M 36.5,209.5 C 34.0809,214.009 31.4143,218.342 28.5,222.5C 28.5,220.5 28.5,218.5 28.5,216.5C 29.675,216.719 30.675,216.386 31.5,215.5C 32.2132,213.224 32.7132,210.891 33,208.5C 33.704,210.727 34.8706,211.06 36.5,209.5 Z"/></g>
<g><path style="opacity:0.945" fill="#a977da" d="M 91.5,208.5 C 92.1667,208.5 92.8333,208.5 93.5,208.5C 94.2623,210.262 95.5956,211.262 97.5,211.5C 97.5,211.833 97.5,212.167 97.5,212.5C 95.5082,212.672 93.8415,212.005 92.5,210.5C 91.5713,211.689 91.238,213.022 91.5,214.5C 89.457,213.421 88.1237,211.754 87.5,209.5C 87.3691,208.624 87.7025,207.957 88.5,207.5C 89.4168,208.127 90.4168,208.461 91.5,208.5 Z"/></g>
<g><path style="opacity:0.918" fill="#cbaae6" d="M 120.5,208.5 C 122.404,208.738 123.738,209.738 124.5,211.5C 122.596,211.262 121.262,210.262 120.5,208.5 Z"/></g>
<g><path style="opacity:1" fill="#af7fdf" d="M 199.5,200.5 C 201.746,201.455 204.079,202.122 206.5,202.5C 206.842,203.338 207.508,203.672 208.5,203.5C 208.5,204.167 208.833,204.5 209.5,204.5C 209.821,206.048 210.821,206.715 212.5,206.5C 212.5,207.5 212.5,208.5 212.5,209.5C 208.067,217.101 202.067,223.267 194.5,228C 179.507,229.135 164.84,227.969 150.5,224.5C 165.127,225.943 179.794,226.609 194.5,226.5C 194.5,225.5 194.5,224.5 194.5,223.5C 195.873,223.657 197.207,223.49 198.5,223C 198.043,222.586 197.709,222.086 197.5,221.5C 198.833,220.833 200.167,220.167 201.5,219.5C 201.291,218.914 200.957,218.414 200.5,218C 202.42,216.878 204.42,216.044 206.5,215.5C 206.5,214.5 206.5,213.5 206.5,212.5C 208.849,212.542 210.182,211.375 210.5,209C 207.821,205.991 204.488,203.991 200.5,203C 199.748,202.329 199.414,201.496 199.5,200.5 Z"/></g>
<g><path style="opacity:1" fill="#ad7bd9" d="M 26.5,203.5 C 26.4269,208.654 24.0936,212.321 19.5,214.5C 21.4726,210.543 23.8059,206.876 26.5,203.5 Z"/></g>
<g><path style="opacity:0.98" fill="#b185db" d="M 267.5,205.5 C 270.255,205.963 271.922,207.63 272.5,210.5C 273.234,211.708 273.567,213.041 273.5,214.5C 271.265,211.709 269.265,208.709 267.5,205.5 Z"/></g>
<g><path style="opacity:0.98" fill="#a362e5" d="M 90.5,196.5 C 92.0618,196.733 93.3951,197.4 94.5,198.5C 95.3095,202.796 97.9762,204.796 102.5,204.5C 102.821,206.048 103.821,206.715 105.5,206.5C 107.909,207.701 109.909,209.367 111.5,211.5C 113.345,216.674 117.011,219.674 122.5,220.5C 122.659,225.735 121.326,226.401 118.5,222.5C 117.833,223.833 117.167,225.167 116.5,226.5C 113.667,224.251 111.667,221.418 110.5,218C 106.787,215.814 103.121,213.648 99.5,211.5C 98.8333,211.5 98.1667,211.5 97.5,211.5C 96.7377,209.738 95.4044,208.738 93.5,208.5C 93.1667,207.833 92.8333,207.167 92.5,206.5C 91.3202,204.087 89.3202,203.087 86.5,203.5C 80.1386,194.958 81.4719,192.625 90.5,196.5 Z"/></g>
<g><path style="opacity:1" fill="#bd96e0" d="M 91.5,215.5 C 94.179,215.525 95.5123,216.858 95.5,219.5C 93.8333,218.5 92.5,217.167 91.5,215.5 Z"/></g>
<g><path style="opacity:1" fill="#b180dd" d="M 111.5,211.5 C 114.184,213.193 116.851,214.86 119.5,216.5C 120.5,217.833 121.5,219.167 122.5,220.5C 117.011,219.674 113.345,216.674 111.5,211.5 Z"/></g>
<g><path style="opacity:1" fill="#a570dc" d="M 131.5,216.5 C 134.482,216.963 137.482,217.296 140.5,217.5C 143.037,220.214 146.037,222.214 149.5,223.5C 147.565,222.85 145.565,222.517 143.5,222.5C 138.902,221.535 134.902,219.535 131.5,216.5 Z"/></g>
<g><path style="opacity:0.816" fill="#d9baed" d="M 95.5,219.5 C 97.7488,220.08 99.4154,221.413 100.5,223.5C 98.2512,222.92 96.5846,221.587 95.5,219.5 Z"/></g>
<g><path style="opacity:0.965" fill="#bf98e2" d="M 102.5,216.5 C 102.833,216.5 103.167,216.5 103.5,216.5C 103.5,217.167 103.833,217.5 104.5,217.5C 104.5,218.167 104.833,218.5 105.5,218.5C 105.5,219.167 105.833,219.5 106.5,219.5C 106.5,220.167 106.833,220.5 107.5,220.5C 107.5,221.167 107.833,221.5 108.5,221.5C 108.5,221.833 108.5,222.167 108.5,222.5C 105.184,221.851 103.184,219.851 102.5,216.5 Z"/></g>
<g><path style="opacity:1" fill="#a464e2" d="M 270.5,192.5 C 272.062,192.733 273.395,193.4 274.5,194.5C 275.89,195.899 276.89,197.566 277.5,199.5C 277.427,201.027 278.094,202.027 279.5,202.5C 282.916,206.323 285.582,210.657 287.5,215.5C 287.4,218.108 288.067,220.442 289.5,222.5C 288.527,221.209 287.527,221.209 286.5,222.5C 285.601,219.606 284.268,216.939 282.5,214.5C 281.167,215.167 280.167,216.167 279.5,217.5C 281.733,219.569 282.4,221.903 281.5,224.5C 280.566,223.432 280.232,222.099 280.5,220.5C 278.678,220.169 277.011,219.502 275.5,218.5C 274.4,217.395 273.733,216.062 273.5,214.5C 273.567,213.041 273.234,211.708 272.5,210.5C 273.931,210.881 274.764,211.881 275,213.5C 276,212.833 277,212.167 278,211.5C 279.978,212.816 281.478,212.316 282.5,210C 280.323,208.798 277.989,208.298 275.5,208.5C 276.008,205.824 276.175,203.157 276,200.5C 275.209,198.396 273.709,197.063 271.5,196.5C 270.754,195.264 270.421,193.93 270.5,192.5 Z"/></g>
<g><path style="opacity:0.975" fill="#a263e1" d="M 97.5,212.5 C 99.1667,213.833 100.833,215.167 102.5,216.5C 103.184,219.851 105.184,221.851 108.5,222.5C 108.762,223.978 108.429,225.311 107.5,226.5C 105.423,224.918 103.09,223.918 100.5,223.5C 99.4154,221.413 97.7488,220.08 95.5,219.5C 95.5123,216.858 94.179,215.525 91.5,215.5C 91.5,215.167 91.5,214.833 91.5,214.5C 91.238,213.022 91.5713,211.689 92.5,210.5C 93.8415,212.005 95.5082,212.672 97.5,212.5 Z"/></g>
<g><path style="opacity:0.983" fill="#a770de" d="M 99.5,211.5 C 103.121,213.648 106.787,215.814 110.5,218C 111.667,221.418 113.667,224.251 116.5,226.5C 117.167,225.167 117.833,223.833 118.5,222.5C 121.326,226.401 122.659,225.735 122.5,220.5C 125.473,222.147 128.14,224.147 130.5,226.5C 126.209,224.86 122.209,225.36 118.5,228C 119.779,229.646 121.445,230.813 123.5,231.5C 122.332,232.906 122.665,234.072 124.5,235C 129.778,235.21 134.945,236.044 140,237.5C 141.07,237.472 141.903,237.139 142.5,236.5C 143.167,236.5 143.833,236.5 144.5,236.5C 142.365,238.369 139.698,239.036 136.5,238.5C 135.833,238.5 135.167,238.5 134.5,238.5C 132.162,236.96 129.495,236.294 126.5,236.5C 125.448,236.649 124.448,236.483 123.5,236C 118.965,231.297 114.298,226.797 109.5,222.5C 109.5,221.833 109.167,221.5 108.5,221.5C 107.833,221.5 107.5,221.167 107.5,220.5C 106.833,220.5 106.5,220.167 106.5,219.5C 105.833,219.5 105.5,219.167 105.5,218.5C 104.833,218.5 104.5,218.167 104.5,217.5C 103.833,217.5 103.5,217.167 103.5,216.5C 102.167,214.833 100.833,213.167 99.5,211.5 Z"/></g>
<g><path style="opacity:0.961" fill="#c49fe2" d="M 143.5,222.5 C 145.565,222.517 147.565,222.85 149.5,223.5C 150.167,223.5 150.5,223.833 150.5,224.5C 147.848,224.59 145.515,223.924 143.5,222.5 Z"/></g>
<g><path style="opacity:1" fill="#b788de" d="M 275.5,218.5 C 277.011,219.502 278.678,220.169 280.5,220.5C 280.232,222.099 280.566,223.432 281.5,224.5C 282.072,225.973 282.905,227.307 284,228.5C 284.765,230.066 284.598,231.399 283.5,232.5C 280.845,227.861 278.179,223.194 275.5,218.5 Z"/></g>
<g><path style="opacity:1" fill="#b392d7" d="M 16.5,219.5 C 16.4077,221.848 15.4077,223.514 13.5,224.5C 13.7497,222.326 14.7497,220.659 16.5,219.5 Z"/></g>
<g><path style="opacity:0.988" fill="#b081db" d="M 112.5,204.5 C 121.51,213.52 131.843,220.52 143.5,225.5C 141.076,225.192 138.743,225.526 136.5,226.5C 137.524,227.852 138.524,229.185 139.5,230.5C 132.557,226.223 125.89,221.556 119.5,216.5C 116.694,213.272 113.694,210.272 110.5,207.5C 113.687,208.837 114.354,207.837 112.5,204.5 Z"/></g>
<g><path style="opacity:0.996" fill="#ba90e3" d="M 143.5,225.5 C 145.698,225.875 147.698,226.542 149.5,227.5C 146.918,227.975 144.918,227.308 143.5,225.5 Z"/></g>
<g><path style="opacity:0.624" fill="#cdaced" d="M 294.5,226.5 C 295.906,226.973 296.573,227.973 296.5,229.5C 295.094,229.027 294.427,228.027 294.5,226.5 Z"/></g>
<g><path style="opacity:0.961" fill="#a87adc" d="M 108.5,222.5 C 108.833,222.5 109.167,222.5 109.5,222.5C 110.415,224.754 111.748,226.754 113.5,228.5C 113.5,229.833 112.833,230.5 111.5,230.5C 107.024,229.343 103.358,227.01 100.5,223.5C 103.09,223.918 105.423,224.918 107.5,226.5C 108.429,225.311 108.762,223.978 108.5,222.5 Z"/></g>
<g><path style="opacity:0.946" fill="#ab7bd8" d="M 149.5,227.5 C 158.092,229.084 166.759,230.084 175.5,230.5C 175.5,230.833 175.5,231.167 175.5,231.5C 170.156,231.666 164.823,231.499 159.5,231C 155.779,230.328 152.445,229.161 149.5,227.5 Z"/></g>
<g><path style="opacity:0.447" fill="#d5bdf3" d="M 175.5,231.5 C 175.5,231.167 175.5,230.833 175.5,230.5C 180.179,230.334 184.845,230.501 189.5,231C 187.783,232.559 185.783,233.392 183.5,233.5C 183.918,232.778 184.584,232.278 185.5,232C 182.183,231.502 178.85,231.335 175.5,231.5 Z"/></g>
<g><path style="opacity:1" fill="#bb9ed3" d="M 113.5,228.5 C 121.394,235.563 120.727,236.23 111.5,230.5C 112.833,230.5 113.5,229.833 113.5,228.5 Z"/></g>
<g><path style="opacity:1" fill="#a463e5" d="M 130.5,226.5 C 133.81,228.482 136.81,230.815 139.5,233.5C 139.856,235.19 140.856,236.19 142.5,236.5C 141.903,237.139 141.07,237.472 140,237.5C 134.945,236.044 129.778,235.21 124.5,235C 122.665,234.072 122.332,232.906 123.5,231.5C 121.445,230.813 119.779,229.646 118.5,228C 122.209,225.36 126.209,224.86 130.5,226.5 Z"/></g>
<g><path style="opacity:0.357" fill="#e4c3fe" d="M 23.5,231.5 C 30.9818,232.492 38.6484,232.825 46.5,232.5C 46.5,233.5 46.5,234.5 46.5,235.5C 38.7426,233.906 30.7426,232.906 22.5,232.5C 22.6236,231.893 22.9569,231.56 23.5,231.5 Z"/></g>
<g><path style="opacity:0.965" fill="#a25fe5" d="M 143.5,225.5 C 144.918,227.308 146.918,227.975 149.5,227.5C 152.445,229.161 155.779,230.328 159.5,231C 164.823,231.499 170.156,231.666 175.5,231.5C 175.5,232.5 175.5,233.5 175.5,234.5C 172.15,234.335 168.817,234.502 165.5,235C 162.998,236.833 160.165,237.666 157,237.5C 150.436,235.296 144.603,232.963 139.5,230.5C 138.524,229.185 137.524,227.852 136.5,226.5C 138.743,225.526 141.076,225.192 143.5,225.5 Z"/></g>
<g><path style="opacity:0.929" fill="#b082df" d="M 281.5,232.5 C 276.025,233.489 270.358,233.822 264.5,233.5C 263.969,236.779 261.969,238.113 258.5,237.5C 253.167,237.5 247.833,237.5 242.5,237.5C 248.679,236.833 255.012,236.167 261.5,235.5C 261.833,234.833 262.167,234.167 262.5,233.5C 268.798,232.504 275.132,232.17 281.5,232.5 Z"/></g>
<g><path style="opacity:1" fill="#a35fe7" d="M 289.5,222.5 C 291.8,224.075 292.633,226.075 292,228.5C 295.524,230.524 297.691,233.524 298.5,237.5C 298.182,238.647 297.516,239.481 296.5,240C 278.5,240.667 260.5,240.667 242.5,240C 247.841,238.882 253.174,238.048 258.5,237.5C 261.969,238.113 263.969,236.779 264.5,233.5C 270.358,233.822 276.025,233.489 281.5,232.5C 282.167,232.5 282.833,232.5 283.5,232.5C 284.598,231.399 284.765,230.066 284,228.5C 282.905,227.307 282.072,225.973 281.5,224.5C 282.4,221.903 281.733,219.569 279.5,217.5C 280.167,216.167 281.167,215.167 282.5,214.5C 284.268,216.939 285.601,219.606 286.5,222.5C 287.527,221.209 288.527,221.209 289.5,222.5 Z"/></g>
<g><path style="opacity:1" fill="#9f6ad7" d="M 27.5,224.5 C 26.4196,226.996 25.0862,229.33 23.5,231.5C 22.9569,231.56 22.6236,231.893 22.5,232.5C 30.7426,232.906 38.7426,233.906 46.5,235.5C 47.2625,236.268 48.2625,236.768 49.5,237C 55.8815,237.247 62.2149,237.747 68.5,238.5C 68.4142,239.496 68.7476,240.329 69.5,241C 47.3295,241.83 25.3295,241.663 3.5,240.5C 3.74973,238.326 4.74973,236.659 6.5,235.5C 6.5,237.167 6.5,238.833 6.5,240.5C 26.1695,240.667 45.8362,240.5 65.5,240C 59.2303,238.848 52.8969,238.182 46.5,238C 45.6721,237.085 44.6721,236.419 43.5,236C 36.4495,235.203 29.4495,235.37 22.5,236.5C 22.1667,235.5 21.8333,234.5 21.5,233.5C 21.3347,228.921 23.3347,225.921 27.5,224.5 Z"/></g>
<g><path style="opacity:0.98" fill="#c69ade" d="M 139.5,233.5 C 140.167,233.5 140.833,233.5 141.5,233.5C 141.973,234.906 142.973,235.573 144.5,235.5C 144.5,235.833 144.5,236.167 144.5,236.5C 143.833,236.5 143.167,236.5 142.5,236.5C 140.856,236.19 139.856,235.19 139.5,233.5 Z"/></g>
<g><path style="opacity:1" fill="#ac7ade" d="M 139.5,230.5 C 144.603,232.963 150.436,235.296 157,237.5C 160.165,237.666 162.998,236.833 165.5,235C 168.817,234.502 172.15,234.335 175.5,234.5C 175.5,233.5 175.5,232.5 175.5,231.5C 178.85,231.335 182.183,231.502 185.5,232C 184.584,232.278 183.918,232.778 183.5,233.5C 181.786,234.738 179.786,235.405 177.5,235.5C 174.612,234.99 172.279,235.656 170.5,237.5C 163.601,239.62 156.601,239.953 149.5,238.5C 148.341,236.75 146.674,235.75 144.5,235.5C 144.027,234.094 143.027,233.427 141.5,233.5C 140.833,232.5 140.167,231.5 139.5,230.5 Z"/></g>
<g><path style="opacity:1" fill="#bd90dd" d="M 177.5,235.5 C 175.401,236.612 173.067,237.279 170.5,237.5C 172.279,235.656 174.612,234.99 177.5,235.5 Z"/></g>
<g><path style="opacity:0.604" fill="#d3adef" d="M 126.5,236.5 C 129.495,236.294 132.162,236.96 134.5,238.5C 131.572,238.435 128.905,237.768 126.5,236.5 Z"/></g>
<g><path style="opacity:0.878" fill="#bea4d7" d="M 144.5,236.5 C 146.05,237.441 147.716,238.107 149.5,238.5C 145.167,239.833 140.833,239.833 136.5,238.5C 139.698,239.036 142.365,238.369 144.5,236.5 Z"/></g>
<g><path style="opacity:1" fill="#9f68d8" d="M 287.5,215.5 C 290.579,218.65 292.913,222.317 294.5,226.5C 294.427,228.027 295.094,229.027 296.5,229.5C 297.89,230.899 298.89,232.566 299.5,234.5C 300.219,236.764 300.552,239.097 300.5,241.5C 280.167,241.5 259.833,241.5 239.5,241.5C 239.5,240.5 239.5,239.5 239.5,238.5C 240.209,237.596 241.209,237.263 242.5,237.5C 247.833,237.5 253.167,237.5 258.5,237.5C 253.174,238.048 247.841,238.882 242.5,240C 260.5,240.667 278.5,240.667 296.5,240C 297.516,239.481 298.182,238.647 298.5,237.5C 297.691,233.524 295.524,230.524 292,228.5C 292.633,226.075 291.8,224.075 289.5,222.5C 288.067,220.442 287.4,218.108 287.5,215.5 Z"/></g>
<g><path style="opacity:0.503" fill="#d2adf9" d="M 68.5,238.5 C 69.9616,239.458 71.2949,240.624 72.5,242C 49.1595,242.833 25.8262,242.666 2.5,241.5C 2.62358,240.893 2.95691,240.56 3.5,240.5C 25.3295,241.663 47.3295,241.83 69.5,241C 68.7476,240.329 68.4142,239.496 68.5,238.5 Z"/></g>
<g><path style="opacity:0.507" fill="#cda7f4" d="M 299.5,234.5 C 301.497,236.513 303.164,238.846 304.5,241.5C 281.841,242.666 259.174,242.833 236.5,242C 237.163,240.482 238.163,239.315 239.5,238.5C 239.5,239.5 239.5,240.5 239.5,241.5C 259.833,241.5 280.167,241.5 300.5,241.5C 300.552,239.097 300.219,236.764 299.5,234.5 Z"/></g>
</svg>
